<svg id="Layer_1" data-name="Layer 1" xmlns="http://www.w3.org/2000/svg" width="32" height="32" viewBox="0 0 32 32">
  <title>header-medium</title>
  <g id="medium">
    <path id="Shape" d="M9.9,11.65a.64.64,0,0,0-.2-.54L8.2,9.28V9h4.64l3.59,8,3.15-8H24v.28l-1.28,1.25a.39.39,0,0,0-.14.37V20.1a.39.39,0,0,0,.14.37L24,21.72V22H17.7v-.28L19,20.44c.13-.13.13-.17.13-.37V12.63L15.52,22H15l-4.18-9.34v6.26a.88.88,0,0,0,.23.72l1.68,2.09V22H8v-.28l1.68-2.09a.85.85,0,0,0,.22-.72Z" style="fill: #3e3f58"/>
  </g>
</svg>
