<?xml version="1.0" encoding="utf-8"?>
<!-- Generator: Adobe Illustrator 21.1.0, SVG Export Plug-In . SVG Version: 6.00 Build 0)  -->
<svg version="1.1" id="Layer_1" xmlns="http://www.w3.org/2000/svg" xmlns:xlink="http://www.w3.org/1999/xlink" x="0px" y="0px"
	 viewBox="0 0 512 512" style="enable-background:new 0 0 512 512;" xml:space="preserve">
<style type="text/css">
	.st0{fill:#3E4056;}
</style>
<path class="st0" d="M85.1,168.7c14.2,0,25.4,6.8,33.5,20.3c1.1,1.5,1.8,3.4,1.8,5.5c0,5-4.1,9.1-9.1,9.1c-4.2,0-7.7-2.8-8.8-6.5
	c-2.5-3.9-4.8-6.5-7.1-7.8c-2.7-1.7-6.2-2.6-10.5-2.6c-5.3,0-9.7,1.5-13.1,4.5c-3.5,2.9-5.2,6.6-5.2,11c0,6.1,4.6,11,13.7,14.8
	l12.6,5.1c10.2,4.1,17.7,9.1,22.4,15.1c4.7,5.9,7.1,13.2,7.1,21.8c0,11.5-3.9,21-11.6,28.6c-7.8,7.6-17.4,11.4-29,11.4
	c-10.9,0-20-3.2-27.1-9.7c-7-6.4-11.4-15.5-13.1-27.2l0.2,0c-0.1-0.6-0.2-1.2-0.2-1.8c0-5.4,4.4-9.7,9.8-9.7c5.4,0,9.8,4.4,9.8,9.7
	l0,0.1c0.9,6.1,2.3,10.3,4.2,12.8c3.9,5.4,9.6,8.1,17.1,8.1c5.9,0,10.9-2,14.8-5.9c3.9-4,5.9-9,5.9-15c0-2.4-0.3-4.7-1-6.7
	c-0.7-2-1.7-3.9-3.2-5.6c-1.4-1.7-3.3-3.3-5.6-4.8c-2.3-1.5-5-2.9-8.2-4.3l-12.2-5c-17.2-7.3-25.9-17.9-25.9-31.8
	c0-9.4,3.6-17.3,10.9-23.6C65.3,171.9,74.3,168.7,85.1,168.7z M150.9,352.1c4.6,0,8.5-3.1,9.7-7.4l5.3-12.6l59.5-114.7h-20.7
	l-22.7,45.5l-24.3-45.5h-21.3l35.7,64.4L143,335.9c-0.8,0.9-1.3,2-1.7,3.2l-0.2,0.4h0.1c-0.2,0.8-0.3,1.7-0.3,2.6
	C140.8,347.6,145.3,352.1,150.9,352.1z M245.7,217.4h18.4v7.3c6.4-6.3,13.7-9.5,21.7-9.5c9.2,0,16.5,2.9,21.6,8.7
	c4.5,4.9,6.7,13,6.7,24.1v48.5h-18.4v-44.2c0-7.8-1.1-13.2-3.3-16.2c-2.1-3-6-4.5-11.6-4.5c-6.1,0-10.4,2-13,6
	c-2.5,4-3.8,10.8-3.8,20.7v38.1h-18.4V217.4z M364.1,234.5v62h-18.4v-62h-7.8v-17h7.8v-29h18.4v29h14.3v17H364.1z M402,159.4h18.4
	V224c6.5-5.8,13.7-8.8,21.6-8.8c9,0,16.2,2.9,21.5,8.7c4.6,5,6.9,13.1,6.9,24.1v48.5h-18.4v-46.8c0-6.3-1.1-10.9-3.4-13.8
	c-2.3-2.8-5.9-4.3-10.9-4.3c-6.4,0-10.9,2-13.5,5.9c-2.6,4-3.8,10.9-3.8,20.6v38.2H402V159.4z"/>
</svg>
